<svg width="68" height="68" viewBox="0 0 68 68" fill="none" xmlns="http://www.w3.org/2000/svg">
<g filter="url(#filter0_d)">
<path d="M27 41C36.3888 41 44 33.3888 44 24C44 14.6112 36.3888 7 27 7C17.6112 7 10 14.6112 10 24C10 33.3888 17.6112 41 27 41Z" fill="#3C5A9A"/>
</g>
<path d="M32.0719 12H28.306C26.0711 12 23.5854 12.9399 23.5854 16.1794C23.5963 17.3081 23.5854 18.3891 23.5854 19.6057H21V23.7198H23.6654V35.5636H28.5632V23.6417H31.7959L32.0884 19.5942H28.4788C28.4788 19.5942 28.4869 17.7937 28.4788 17.2708C28.4788 15.9907 29.8108 16.064 29.891 16.064C30.5248 16.064 31.7573 16.0658 32.0737 16.064V12H32.0719V12Z" fill="white"/>
<defs>
<filter id="filter0_d" x="0" y="0" width="68" height="68" filterUnits="userSpaceOnUse" color-interpolation-filters="sRGB">
<feFlood flood-opacity="0" result="BackgroundImageFix"/>
<feColorMatrix in="SourceAlpha" type="matrix" values="0 0 0 0 0 0 0 0 0 0 0 0 0 0 0 0 0 0 127 0"/>
<feOffset dx="7" dy="10"/>
<feGaussianBlur stdDeviation="8.5"/>
<feColorMatrix type="matrix" values="0 0 0 0 0.235294 0 0 0 0 0.352941 0 0 0 0 0.603922 0 0 0 0.3 0"/>
<feBlend mode="normal" in2="BackgroundImageFix" result="effect1_dropShadow"/>
<feBlend mode="normal" in="SourceGraphic" in2="effect1_dropShadow" result="shape"/>
</filter>
</defs>
</svg>
