<svg width="91" height="91" viewBox="0 0 91 91" fill="none" xmlns="http://www.w3.org/2000/svg">
<g filter="url(#filter0_d)">
<path d="M26.4394 67.8126C23.2875 67.6692 21.5753 67.1447 20.4364 66.7005C18.9274 66.1129 17.8515 65.4136 16.719 64.2826C15.5864 63.1516 14.8855 62.0758 14.3011 60.5667C13.8569 59.4279 13.3324 57.7157 13.189 54.5637C13.0315 51.1566 13 50.1343 13 41.5024C13 32.8704 13.0347 31.8497 13.1874 28.4394C13.3308 25.2875 13.8585 23.5784 14.2995 22.4364C14.8871 20.9274 15.588 19.8515 16.7174 18.7174C17.8484 17.5864 18.9242 16.8839 20.4348 16.2995C21.5737 15.8553 23.2859 15.3308 26.4378 15.1874C29.8465 15.0315 30.8704 15 39.4992 15C48.1312 15 49.1519 15.0347 52.5622 15.1874C55.7141 15.3308 57.4232 15.8585 58.5652 16.2995C60.0742 16.8839 61.15 17.5864 62.2826 18.7174C63.4151 19.8484 64.1129 20.9258 64.7005 22.4348C65.1447 23.5737 65.6692 25.2859 65.8126 28.4378C65.9685 31.8481 66 32.8688 66 41.5008C66 50.1296 65.9685 51.1535 65.8126 54.5637C65.6692 57.7157 65.1415 59.4279 64.7005 60.5667C64.1129 62.0758 63.4136 63.1516 62.2826 64.2826C61.1516 65.4136 60.0742 66.1129 58.5652 66.7005C57.4263 67.1447 55.7141 67.6692 52.5622 67.8126C49.1551 67.9685 48.1312 68 39.4992 68C30.8704 68 29.8465 67.9701 26.4394 67.8126" fill="url(#paint0_radial)"/>
<path d="M26.4394 67.8126C23.2875 67.6692 21.5753 67.1447 20.4364 66.7005C18.9274 66.1129 17.8515 65.4136 16.719 64.2826C15.5864 63.1516 14.8855 62.0758 14.3011 60.5667C13.8569 59.4279 13.3324 57.7157 13.189 54.5637C13.0315 51.1566 13 50.1343 13 41.5024C13 32.8704 13.0347 31.8497 13.1874 28.4394C13.3308 25.2875 13.8585 23.5784 14.2995 22.4364C14.8871 20.9274 15.588 19.8515 16.7174 18.7174C17.8484 17.5864 18.9242 16.8839 20.4348 16.2995C21.5737 15.8553 23.2859 15.3308 26.4378 15.1874C29.8465 15.0315 30.8704 15 39.4992 15C48.1312 15 49.1519 15.0347 52.5622 15.1874C55.7141 15.3308 57.4232 15.8585 58.5652 16.2995C60.0742 16.8839 61.15 17.5864 62.2826 18.7174C63.4151 19.8484 64.1129 20.9258 64.7005 22.4348C65.1447 23.5737 65.6692 25.2859 65.8126 28.4378C65.9685 31.8481 66 32.8688 66 41.5008C66 50.1296 65.9685 51.1535 65.8126 54.5637C65.6692 57.7157 65.1415 59.4279 64.7005 60.5667C64.1129 62.0758 63.4136 63.1516 62.2826 64.2826C61.1516 65.4136 60.0742 66.1129 58.5652 66.7005C57.4263 67.1447 55.7141 67.6692 52.5622 67.8126C49.1551 67.9685 48.1312 68 39.4992 68C30.8704 68 29.8465 67.9701 26.4394 67.8126" fill="url(#paint1_radial)"/>
<path d="M32.9947 41.6136C32.9947 37.9889 35.9322 35.0498 39.5569 35.0498C43.1815 35.0498 46.1206 37.9889 46.1206 41.6136C46.1206 45.2382 43.1815 48.1773 39.5569 48.1773C35.9322 48.1773 32.9947 45.2382 32.9947 41.6136V41.6136ZM29.4464 41.6136C29.4464 47.1976 33.9729 51.724 39.5569 51.724C45.1408 51.724 49.6673 47.1976 49.6673 41.6136C49.6673 36.0295 45.1408 31.5031 39.5569 31.5031C33.9729 31.5031 29.4466 36.0292 29.4466 41.6136H29.4464ZM47.7049 31.1022C47.7047 31.5695 47.8431 32.0264 48.1026 32.4151C48.3621 32.8037 48.7309 33.1067 49.1626 33.2857C49.5943 33.4647 50.0693 33.5117 50.5277 33.4207C50.9861 33.3297 51.4072 33.1049 51.7377 32.7746C52.0683 32.4443 52.2935 32.0234 52.3849 31.5651C52.4762 31.1068 52.4296 30.6317 52.2509 30.1999C52.0723 29.768 51.7696 29.3989 51.3811 29.1391C50.9927 28.8794 50.5359 28.7406 50.0686 28.7404H50.0677C49.4413 28.7407 48.8406 28.9896 48.3976 29.4324C47.9546 29.8753 47.7055 30.4758 47.7049 31.1022V31.1022ZM31.6022 57.6407C29.6826 57.5532 28.6392 57.2335 27.9458 56.9633C27.0265 56.6055 26.3706 56.1792 25.681 55.4906C24.9914 54.8019 24.5645 54.1466 24.2082 53.2273C23.9379 52.5343 23.6181 51.4905 23.5309 49.5709C23.4354 47.4954 23.4164 46.872 23.4164 41.6139C23.4164 36.3558 23.437 35.734 23.5309 33.6569C23.6183 31.7372 23.9404 30.6955 24.2082 30.0004C24.5661 29.0811 24.9923 28.4252 25.681 27.7356C26.3697 27.046 27.0249 26.6191 27.9458 26.2628C28.6389 25.9925 29.6826 25.6728 31.6022 25.5855C33.6777 25.49 34.3011 25.471 39.5569 25.471C44.8126 25.471 45.4367 25.4913 47.5138 25.5858C49.4335 25.6732 50.4752 25.9953 51.1703 26.2631C52.0896 26.6194 52.7455 27.0473 53.4351 27.7359C54.1247 28.4246 54.55 29.0814 54.9079 30.0007C55.1782 30.6938 55.4979 31.7375 55.5852 33.6572C55.6806 35.7344 55.6997 36.3561 55.6997 41.6142C55.6997 46.8723 55.6806 47.494 55.5852 49.5712C55.4978 51.4909 55.1764 52.5343 54.9079 53.2277C54.55 54.1469 54.1237 54.8028 53.4351 55.4909C52.7464 56.1789 52.0896 56.6058 51.1703 56.9637C50.4772 57.234 49.4335 57.5537 47.5138 57.641C45.4384 57.7364 44.8149 57.7555 39.5569 57.7555C34.2988 57.7555 33.677 57.7364 31.6022 57.641V57.6407ZM31.4392 22.0431C29.3431 22.1385 27.9108 22.4709 26.66 22.9576C25.3653 23.4603 24.2679 24.1346 23.1721 25.2287C22.0762 26.3228 21.4036 27.4204 20.901 28.7166C20.4142 29.9683 20.0819 31.3998 19.9864 33.4959C19.8894 35.5953 19.8672 36.2665 19.8672 41.6136C19.8672 46.9607 19.8894 47.6318 19.9864 49.7312C20.0819 51.8275 20.4142 53.2588 20.901 54.5105C21.4036 55.8051 22.0764 56.9047 23.1721 57.9984C24.2677 59.092 25.3638 59.7654 26.66 60.2695C27.9132 60.7562 29.3431 61.0886 31.4392 61.184C33.5397 61.2795 34.2098 61.3033 39.5569 61.3033C44.9039 61.3033 45.5751 61.2811 47.6745 61.184C49.7708 61.0886 51.2021 60.7562 52.4537 60.2695C53.7484 59.7654 54.8458 59.0925 55.9417 57.9984C57.0375 56.9043 57.7087 55.8051 58.2127 54.5105C58.6995 53.2588 59.0334 51.8273 59.1273 49.7312C59.2227 47.6303 59.245 46.9607 59.245 41.6136C59.245 36.2665 59.2227 35.5953 59.1273 33.4959C59.0318 31.3996 58.6995 29.9675 58.2127 28.7166C57.7087 27.422 57.0358 26.3246 55.9417 25.2287C54.8475 24.1329 53.7484 23.4603 52.4553 22.9576C51.2021 22.4709 49.7706 22.1369 47.6761 22.0431C45.5764 21.9471 44.9055 21.9238 39.5592 21.9238C34.2129 21.9238 33.5405 21.946 31.44 22.0431" fill="white"/>
</g>
<defs>
<filter id="filter0_d" x="0" y="0" width="91" height="91" filterUnits="userSpaceOnUse" color-interpolation-filters="sRGB">
<feFlood flood-opacity="0" result="BackgroundImageFix"/>
<feColorMatrix in="SourceAlpha" type="matrix" values="0 0 0 0 0 0 0 0 0 0 0 0 0 0 0 0 0 0 127 0"/>
<feOffset dx="6" dy="4"/>
<feGaussianBlur stdDeviation="9.5"/>
<feColorMatrix type="matrix" values="0 0 0 0 0.87451 0 0 0 0 0.254902 0 0 0 0 0.419608 0 0 0 0.3 0"/>
<feBlend mode="normal" in2="BackgroundImageFix" result="effect1_dropShadow"/>
<feBlend mode="normal" in="SourceGraphic" in2="effect1_dropShadow" result="shape"/>
</filter>
<radialGradient id="paint0_radial" cx="0" cy="0" r="1" gradientUnits="userSpaceOnUse" gradientTransform="translate(16.4301 66.8389) scale(67.2903)">
<stop offset="0.09" stop-color="#FA8F21"/>
<stop offset="0.78" stop-color="#D82D7E"/>
</radialGradient>
<radialGradient id="paint1_radial" cx="0" cy="0" r="1" gradientUnits="userSpaceOnUse" gradientTransform="translate(49.7112 65.1371) scale(59.2161)">
<stop offset="0.64" stop-color="#8C3AAA" stop-opacity="0"/>
<stop offset="1" stop-color="#8C3AAA"/>
</radialGradient>
</defs>
</svg>
