<svg width="62" height="70" viewBox="0 0 62 70" fill="none" xmlns="http://www.w3.org/2000/svg">
<path d="M20.3804 30.224V28.0907C19.6362 27.9735 18.8845 27.9092 18.1311 27.8985C10.837 27.883 4.37931 32.5863 2.18888 39.509C-0.0015546 46.4318 2.584 53.9678 8.57113 58.1128C6.37563 55.7748 4.90714 52.8545 4.34292 49.7044C3.77869 46.5543 4.14284 43.309 5.39142 40.3603C6.63999 37.4115 8.71962 34.8854 11.3793 33.0868C14.0389 31.2882 17.1649 30.294 20.38 30.2242L20.3804 30.224Z" fill="#25F4EE"/>
<path d="M20.7834 54.3877C24.8616 54.3822 28.2138 51.1854 28.3924 47.1314V10.9547H35.0345C34.899 10.1988 34.8343 9.43191 34.8413 8.66406L25.7563 8.66406V44.8059C25.6052 48.8805 22.245 52.108 18.1473 52.1145C16.9227 52.1042 15.7182 51.8046 14.6328 51.2403C15.3363 52.2101 16.2601 53.0007 17.329 53.5476C18.3978 54.0946 19.5815 54.3824 20.7834 54.3877V54.3877ZM47.4409 23.2291V21.2183C44.9964 21.2192 42.606 20.5015 40.5701 19.1552C42.3548 21.2197 44.7667 22.6498 47.4409 23.2291V23.2291Z" fill="#25F4EE"/>
<path d="M40.5749 19.1557C38.5692 16.8832 37.4636 13.9619 37.4646 10.9375H35.0394C35.3526 12.6097 36.005 14.2008 36.9567 15.6137C37.9085 17.0267 39.1396 18.2318 40.5749 19.1557V19.1557ZM18.1346 36.938C16.4337 36.9466 14.7845 37.5207 13.4492 38.5691C12.1139 39.6175 11.1691 41.08 10.7651 42.724C10.3611 44.368 10.5211 46.0993 11.2195 47.6425C11.918 49.1856 13.1149 50.4522 14.6199 51.2408C13.797 50.1103 13.3042 48.7755 13.196 47.3838C13.0878 45.9921 13.3683 44.5978 14.0066 43.3548C14.6449 42.1118 15.616 41.0686 16.8128 40.3404C18.0096 39.6122 19.3854 39.2273 20.7883 39.2284C21.5509 39.2383 22.3082 39.3565 23.0373 39.5792V30.381C22.2927 30.27 21.5412 30.2116 20.7883 30.2063H20.3839V37.2002C19.6509 37.0046 18.8932 36.9162 18.1346 36.938V36.938Z" fill="#FE2C55"/>
<path d="M47.4454 23.2285V30.2227C42.9199 30.2139 38.5119 28.7886 34.8458 26.1486V44.5255C34.8264 53.6953 27.35 61.1189 18.1342 61.1189C14.7115 61.1251 11.3713 60.0743 8.57422 58.1115C10.8551 60.5525 13.8218 62.2535 17.0881 62.9929C20.3543 63.7323 23.7686 63.4759 26.8863 62.257C30.004 61.0381 32.6805 58.9132 34.5673 56.1592C36.454 53.4052 37.4635 50.1496 37.4642 46.8166V28.4918C41.1426 31.1144 45.556 32.5211 50.0813 32.5133V23.5076C49.1954 23.505 48.312 23.4115 47.4454 23.2285V23.2285Z" fill="#FE2C55"/>
<path d="M34.8449 44.5265V26.1496C38.5221 28.7746 42.9363 30.1816 47.462 30.1712V23.1772C44.7883 22.6154 42.3707 21.204 40.5736 19.1557C39.1383 18.2318 37.9072 17.0267 36.9554 15.6137C36.0037 14.2008 35.3513 12.6097 35.0381 10.9375H28.396V47.1323C28.3313 48.7078 27.775 50.2242 26.8044 51.4706C25.8337 52.717 24.497 53.6316 22.9799 54.0873C21.4628 54.543 19.8408 54.5172 18.3391 54.0134C16.8375 53.5096 15.5308 52.5529 14.6008 51.2762C13.0956 50.4877 11.8984 49.2211 11.1998 47.6778C10.5012 46.1345 10.3411 44.4031 10.7451 42.759C11.1492 41.1148 12.0941 39.6522 13.4295 38.6037C14.765 37.5553 16.4145 36.9813 18.1155 36.9729C18.8785 36.9797 19.6363 37.0975 20.3649 37.3227V30.3285C17.1326 30.3831 13.986 31.3722 11.3089 33.1753C8.63182 34.9785 6.53982 37.5177 5.28799 40.4834C4.03616 43.4491 3.67858 46.7131 4.25887 49.8776C4.83915 53.042 6.33222 55.97 8.55602 58.3047C11.3806 60.2028 14.7256 61.1861 18.1333 61.12C27.349 61.12 34.8254 53.6963 34.8449 44.5265V44.5265Z" fill="black"/>
</svg>
