<svg width="48" height="49" viewBox="0 0 48 49" fill="none" xmlns="http://www.w3.org/2000/svg">
<circle cx="24" cy="24.1973" r="24" fill="#49A847" fill-opacity="0.16"/>
<g clip-path="url(#clip0)">
<path d="M23.9989 12.6973L28.2249 18.8803L35.4119 20.9893L30.8369 26.9193L31.0519 34.4053L23.9989 31.8873L16.9459 34.4053L17.1609 26.9193L12.5859 20.9893L19.7729 18.8803L23.9989 12.6973ZM21.9989 24.1973H19.9989C19.9989 25.2408 20.4067 26.2431 21.1353 26.9901C21.864 27.7372 22.8557 28.17 23.8989 28.1961C24.9421 28.2222 25.9543 27.8395 26.7193 27.1298C27.4844 26.4201 27.9418 25.4395 27.9939 24.3973L27.9989 24.1973H25.9989C26.0013 24.7162 25.8018 25.2158 25.4426 25.5904C25.0834 25.965 24.5926 26.1853 24.074 26.2048C23.5554 26.2243 23.0495 26.0414 22.6632 25.6948C22.2769 25.3482 22.0405 24.865 22.0039 24.3473L21.9989 24.1973Z" fill="#49A847"/>
</g>
<defs>
<clipPath id="clip0">
<rect width="24" height="24" fill="white" transform="translate(12 12.1973)"/>
</clipPath>
</defs>
</svg>
