<svg width="48" height="48" viewBox="0 0 48 48" fill="none" xmlns="http://www.w3.org/2000/svg">
<circle cx="24" cy="24" r="24" fill="#836AE4" fill-opacity="0.16"/>
<path d="M24 18.999C26.1217 18.999 28.1566 19.8419 29.6569 21.3422C31.1571 22.8425 32 24.8773 32 26.999C32 29.1208 31.1571 31.1556 29.6569 32.6559C28.1566 34.1562 26.1217 34.999 24 34.999C21.8783 34.999 19.8434 34.1562 18.3431 32.6559C16.8429 31.1556 16 29.1208 16 26.999C16 24.8773 16.8429 22.8425 18.3431 21.3422C19.8434 19.8419 21.8783 18.999 24 18.999V18.999ZM24 22.499L22.677 25.179L19.72 25.609L21.86 27.694L21.355 30.64L24 29.249L26.645 30.639L26.14 27.694L28.28 25.608L25.323 25.178L24 22.499ZM25 13.998L30 13.999V16.999L28.637 18.137C27.5059 17.5436 26.2711 17.1739 25 17.048V13.999V13.998ZM23 13.998V17.048C21.7293 17.1737 20.4948 17.5431 19.364 18.136L18 16.999V13.999L23 13.998V13.998Z" fill="#836AE4"/>
</svg>
