<svg width="48" height="49" viewBox="0 0 48 49" fill="none" xmlns="http://www.w3.org/2000/svg">
<circle cx="24" cy="24.5977" r="24" fill="#FF6A39" fill-opacity="0.16"/>
<path d="M32 34.8477H16V32.8477C16 31.5216 16.5268 30.2498 17.4645 29.3121C18.4021 28.3744 19.6739 27.8477 21 27.8477H27C28.3261 27.8477 29.5979 28.3744 30.5355 29.3121C31.4732 30.2498 32 31.5216 32 32.8477V34.8477ZM24 25.8477C23.2121 25.8477 22.4319 25.6925 21.7039 25.3909C20.9759 25.0894 20.3145 24.6474 19.7574 24.0903C19.2002 23.5331 18.7583 22.8717 18.4567 22.1438C18.1552 21.4158 18 20.6356 18 19.8477C18 19.0597 18.1552 18.2795 18.4567 17.5516C18.7583 16.8236 19.2002 16.1622 19.7574 15.605C20.3145 15.0479 20.9759 14.6059 21.7039 14.3044C22.4319 14.0029 23.2121 13.8477 24 13.8477C25.5913 13.8477 27.1174 14.4798 28.2426 15.605C29.3679 16.7302 30 18.2564 30 19.8477C30 21.439 29.3679 22.9651 28.2426 24.0903C27.1174 25.2155 25.5913 25.8477 24 25.8477V25.8477Z" fill="#FF6A39"/>
</svg>
